HIERARCHY
ROOT reference
{
  OFFSET 0 0 0
  CHANNELS 6 Xposition Yposition Zposition Zrotation Xrotation Yrotation
  JOINT Hips
  {
    OFFSET 62.0736 86.4525 155.86
    CHANNELS 6 Xposition Yposition Zposition Zrotation Xrotation Yrotation
    JOINT Spine
    {
      OFFSET 0 7.3847 0
      CHANNELS 6 Xposition Yposition Zposition Zrotation Xrotation Yrotation
      JOINT Spine1
      {
        OFFSET 0 22.52 0
        CHANNELS 6 Xposition Yposition Zposition Zrotation Xrotation Yrotation
        JOINT Neck
        {
          OFFSET 0 22.4276 2.03887
          CHANNELS 6 Xposition Yposition Zposition Zrotation Xrotation Yrotation
          JOINT Head
          {
            OFFSET 0 12.608 -1.80115
            CHANNELS 6 Xposition Yposition Zposition Zrotation Xrotation Yrotation
            End Site
            {
              OFFSET 0 22.5143 0
            }
          }
        }
        JOINT LeftShoulder
        {
          OFFSET 3.70204 19.5563 -0.329131
          CHANNELS 6 Xposition Yposition Zposition Zrotation Xrotation Yrotation
          JOINT LeftArm
          {
            OFFSET 13.7086 0 0
            CHANNELS 6 Xposition Yposition Zposition Zrotation Xrotation Yrotation
            JOINT LeftForeArm
            {
              OFFSET 25.9307 0 0
              CHANNELS 6 Xposition Yposition Zposition Zrotation Xrotation Yrotation
              JOINT LeftHand
              {
                OFFSET 23.5097 0 0
                CHANNELS 6 Xposition Yposition Zposition Zrotation Xrotation Yrotation
                End Site
                {
                  OFFSET 13.5086 0 0
                }
              }
            }
          }
        }
        JOINT RightShoulder
        {
          OFFSET -3.48695 19.5563 -0.329131
          CHANNELS 6 Xposition Yposition Zposition Zrotation Xrotation Yrotation
          JOINT RightArm
          {
            OFFSET -13.7086 0 0
            CHANNELS 6 Xposition Yposition Zposition Zrotation Xrotation Yrotation
            JOINT RightForeArm
            {
              OFFSET -25.9307 0 0
              CHANNELS 6 Xposition Yposition Zposition Zrotation Xrotation Yrotation
              JOINT RightHand
              {
                OFFSET -23.5097 0 0
                CHANNELS 6 Xposition Yposition Zposition Zrotation Xrotation Yrotation
                End Site
                {
                  OFFSET -13.5086 0 0
                }
              }
            }
          }
        }
      }
    }
    JOINT LeftUpLeg
    {
      OFFSET 9.00574 0 0
      CHANNELS 6 Xposition Yposition Zposition Zrotation Xrotation Yrotation
      JOINT LeftLeg
      {
        OFFSET 0 -37.3387 0
        CHANNELS 6 Xposition Yposition Zposition Zrotation Xrotation Yrotation
        JOINT LeftFoot
        {
          OFFSET 0 -36.155 0
          CHANNELS 6 Xposition Yposition Zposition Zrotation Xrotation Yrotation
          JOINT LeftToeBase
          {
            OFFSET 0 -5.85373 13.5086
            CHANNELS 6 Xposition Yposition Zposition Zrotation Xrotation Yrotation
            End Site
            {
              OFFSET 0 0 3.60229
            }
          }
        }
      }
    }
    JOINT RightUpLeg
    {
      OFFSET -9.00574 0 0
      CHANNELS 6 Xposition Yposition Zposition Zrotation Xrotation Yrotation
      JOINT RightLeg
      {
        OFFSET 0 -37.3387 0
        CHANNELS 6 Xposition Yposition Zposition Zrotation Xrotation Yrotation
        JOINT RightFoot
        {
          OFFSET 0 -36.155 0
          CHANNELS 6 Xposition Yposition Zposition Zrotation Xrotation Yrotation
          JOINT RightToeBase
          {
            OFFSET 0 -5.85373 13.5086
            CHANNELS 6 Xposition Yposition Zposition Zrotation Xrotation Yrotation
            End Site
            {
              OFFSET 0 0 3.60229
            }
          }
        }
      }
    }
  }
}
MOTION
Frames:	7
Frame Time:	0.004
0 0 0 0 0 -0 34.7297 74.9876 -191.449 1.58779 6.94807 4.62707 -7.10543e-015 7.3847 0 -4.12532 -7.29661 0.421079 -7.10543e-015 22.52 0 0.314836 -6.07072 0.700728 -7.10543e-015 22.4276 2.03887 9.91706 19.7736 0.508835 0 12.608 -1.80115 -5.12885 -2.20853 0.0286957 3.70204 19.5563 -0.329131 21.0603 0.414133 -2.86287 13.7086 1.42109e-014 0 -30.5847 -4.96093 5.26254 25.9307 0 0 4.56702 -2.02993 1.39306 23.5097 0 -2.84217e-014 -1.86007 -2.12811 2.63444 -3.48695 19.5563 -0.329131 -14.996 -0.693986 -5.70535 -13.7086 -2.84217e-014 -2.84217e-014 19.0787 3.26438 1.80838 -25.9307 0 0 -5.32358 -3.25972 -2.1205 -23.5097 0 -2.84217e-014 -1.64305 -3.33871 -1.32843 9.00574 -7.10543e-015 0 -1.5116 -13.383 2.68138 1.42109e-014 -37.3387 -2.84217e-014 -1.87449 18.3256 5.6463 0 -36.155 0 -0.716725 -9.93726 -1.86885 0 -5.85373 13.5086 -4.96962e-017 1.98785e-016 -0 -9.00574 -7.10543e-015 0 0.0809247 -5.23025 0.746953 7.10543e-015 -37.3387 0 7.77902 11.285 -3.57447 7.10543e-015 -36.155 -2.84217e-014 -8.00647 -12.611 -24.144 0 -5.85373 13.5086 -1.49089e-016 -1.98785e-016 -0 
0 0 0 0 0 -0 34.7297 74.9876 -191.449 1.58647 6.94797 4.63799 0 7.3847 0 -4.12532 -7.29661 0.421079 7.10543e-015 22.52 0 0.30493 -6.07072 0.700728 0 22.4276 2.03887 9.93842 19.7736 0.508835 0 12.608 -1.80115 -5.14999 -2.21766 0.0286959 3.70204 19.5563 -0.329131 21.0724 0.4172 -2.86038 13.7086 2.84217e-014 -2.84217e-014 -30.585 -4.9573 5.26252 25.9307 -5.68434e-014 0 4.56705 -2.03142 1.39306 23.5097 0 0 -1.8291 -2.12839 2.59144 -3.48695 19.5563 -0.329131 -14.996 -0.693986 -5.70535 -13.7086 -2.84217e-014 0 19.0925 3.29586 1.80844 -25.9307 0 2.84217e-014 -5.33452 -3.2985 -2.12058 -23.5097 0 0 -1.67983 -3.37719 -1.34254 9.00574 0 0 -1.5116 -13.383 2.68138 0 -37.3387 2.84217e-014 -1.86918 18.3261 5.62941 0 -36.155 2.84217e-014 -0.716725 -9.93726 -1.86885 0 -5.85373 13.5086 -0 -1.98785e-016 -0 -9.00574 0 -2.84217e-014 0.0798167 -5.23026 0.7348 -7.10543e-015 -37.3387 2.84217e-014 7.77919 11.285 -3.57531 7.10543e-015 -36.155 0 -7.99247 -12.6121 -24.1321 7.10543e-015 -5.85373 13.5086 -1.98785e-016 0 3.18055e-015 
0 0 0 0 0 -0 34.7297 74.9876 -191.449 1.5871 6.94643 4.63383 0 7.3847 0 -4.12532 -7.29661 0.421079 0 22.52 2.84217e-014 0.304512 -6.07072 0.700728 0 22.4276 2.03887 9.93082 19.7736 0.508835 0 12.608 -1.80115 -5.14038 -2.21148 0.0286958 3.70204 19.5563 -0.329131 21.0739 0.398031 -2.8721 13.7086 0 2.84217e-014 -30.5851 -4.94239 5.27719 25.9307 -2.84217e-014 0 4.56671 -2.01713 1.39305 23.5097 0 -2.84217e-014 -1.83112 -2.11424 2.60322 -3.48695 19.5563 -0.329131 -14.9949 -0.682429 -5.70534 -13.7086 0 0 19.1008 3.29243 1.80843 -25.9307 0 -2.84217e-014 -5.35092 -3.31241 -2.12061 -23.5097 2.84217e-014 0 -1.68278 -3.39195 -1.3248 9.00574 0 0 -1.51205 -13.3735 2.68127 1.42109e-014 -37.3387 -2.84217e-014 -1.87486 18.3255 5.64749 0 -36.155 0 -0.717628 -9.95129 -1.877 0 -5.85373 13.5086 4.96962e-017 5.96354e-016 1.59028e-015 -9.00574 0 2.84217e-014 0.0795092 -5.23027 0.731426 0 -37.3387 0 7.78146 11.2849 -3.5869 -7.10543e-015 -36.155 0 -7.98359 -12.6107 -24.1162 0 -5.85373 13.5086 -5.96354e-016 3.97569e-016 -3.18055e-015 
0 0 0 0 0 -0 34.7343 74.9876 -191.449 1.58818 6.95782 4.63884 7.10543e-015 7.3847 0 -4.12609 -7.29976 0.421633 0 22.52 -2.84217e-014 0.295249 -6.07631 0.700735 -1.42109e-014 22.4276 2.03887 9.95033 19.7736 0.508835 -1.42109e-014 12.608 -1.80115 -5.1613 -2.22221 0.028696 3.70204 19.5563 -0.329131 21.0771 0.400078 -2.88063 13.7086 0 0 -30.5819 -4.92862 5.27384 25.9307 0 2.84217e-014 4.57257 -2.01095 1.39328 23.5097 0 0 -1.84685 -2.10862 2.60045 -3.48695 19.5563 -0.329131 -14.9949 -0.683204 -5.7014 -13.7086 2.84217e-014 0 19.0986 3.2791 1.8021 -25.9307 0 0 -5.34083 -3.31376 -2.11193 -23.5097 0 0 -1.67177 -3.3929 -1.31976 9.00574 -7.10543e-015 0 -1.51136 -13.3878 2.68143 0 -37.3387 2.84217e-014 -1.87825 18.3255 5.64972 0 -36.155 0 -0.686176 -9.94159 -1.88373 0 -5.85373 13.5086 1.98785e-016 -3.97569e-016 -1.59028e-015 -9.00574 -7.10543e-015 2.84217e-014 0.0780464 -5.24271 0.713688 -7.10543e-015 -37.3387 0 7.77751 11.2851 -3.56672 0 -36.155 0 -8.01186 -12.6007 -24.1302 -1.42109e-014 -5.85373 13.5086 -1.98785e-016 0 6.36111e-015 
0 0 0 0 0 -0 34.7384 74.9876 -191.446 1.58491 6.95209 4.64429 0 7.3847 -2.84217e-014 -4.10756 -7.28405 0.430556 0 22.52 0 0.264639 -6.08765 0.700972 0 22.4276 2.03887 9.95509 19.7662 0.502769 0 12.608 -1.80115 -5.14327 -2.21088 0.025205 3.70204 19.5563 -0.329131 21.0805 0.400818 -2.9045 13.7086 1.42109e-014 -2.84217e-014 -30.5697 -4.92407 5.27661 25.9307 0 2.84217e-014 4.55033 -1.99281 1.39352 23.5097 0 0 -1.79716 -2.08902 2.59558 -3.48695 19.5563 -0.329131 -14.9953 -0.684905 -5.72449 -13.7086 0 0 19.1148 3.30594 1.81443 -25.9307 0 0 -5.32768 -3.28139 -2.12901 -23.5097 -2.84217e-014 5.68434e-014 -1.86293 -3.35939 -1.28913 9.00574 -7.10543e-015 0 -1.51077 -13.3771 2.68608 0 -37.3387 0 -1.87775 18.3269 5.6023 1.42109e-014 -36.155 0 -0.694894 -9.95608 -1.85112 0 -5.85373 13.5086 -3.47873e-016 7.95139e-016 -0 -9.00574 7.10543e-015 -2.84217e-014 0.0779776 -5.23032 0.71462 0 -37.3387 2.84217e-014 7.77532 11.2853 -3.55554 0 -36.155 0 -7.97069 -12.6128 -24.1448 7.10543e-015 -5.85373 13.5086 -0 -1.98785e-016 -0 
0 0 0 0 0 -0 34.7424 74.9876 -191.443 1.58048 6.96004 4.64385 0 7.3847 2.84217e-014 -4.10744 -7.29309 0.435801 0 22.52 0 0.254865 -6.08591 0.701206 -7.10543e-015 22.4276 2.03887 9.99462 19.6585 0.532771 0 12.608 -1.80115 -5.19363 -2.04353 0.046696 3.70204 19.5563 -0.329131 21.0829 0.391537 -2.91655 13.7086 1.42109e-014 -2.84217e-014 -30.5688 -4.91584 5.28044 25.9307 -2.84217e-014 0 4.55859 -1.98248 1.39378 23.5097 0 -2.84217e-014 -1.83678 -2.07965 2.58729 -3.48695 19.5563 -0.329131 -14.9955 -0.686826 -5.72676 -13.7086 0 0 19.1088 3.2762 1.81229 -25.9307 0 0 -5.31319 -3.27501 -2.12323 -23.5097 0 0 -1.8595 -3.35228 -1.30343 9.00574 -1.42109e-014 0 -1.50943 -13.3776 2.69178 1.42109e-014 -37.3387 0 -1.87161 18.3263 5.62242 0 -36.155 2.84217e-014 -0.712923 -9.94837 -1.88216 0 -5.85373 13.5086 -0 -1.98785e-016 -0 -9.00574 0 0 0.0783519 -5.24102 0.717263 0 -37.3387 2.84217e-014 7.77895 11.285 -3.57409 0 -36.155 -2.84217e-014 -7.97525 -12.6182 -24.1312 0 -5.85373 13.5086 1.49089e-016 -9.93923e-017 3.18055e-015 
0 0 0 0 0 -0 34.7459 74.9876 -191.441 1.57506 6.96417 4.65223 0 7.3847 0 -4.10329 -7.29321 0.436 0 22.52 0 0.251637 -6.08251 0.701451 7.10543e-015 22.4276 2.03887 9.95765 19.771 0.490215 0 12.608 -1.80115 -5.14248 -2.22013 0.012465 3.70204 19.5563 -0.329131 21.0842 0.385077 -2.92058 13.7086 0 0 -30.5719 -4.88957 5.28325 25.9307 0 2.84217e-014 4.56945 -1.98491 1.39405 23.5097 0 -2.84217e-014 -1.82451 -2.08187 2.58635 -3.48695 19.5563 -0.329131 -15.0052 -0.689004 -5.72678 -13.7086 0 0 19.124 3.30135 1.80648 -25.9307 0 0 -5.32859 -3.30065 -2.1258 -23.5097 2.84217e-014 0 -1.84845 -3.37814 -1.31167 9.00574 -1.42109e-014 0 -1.50777 -13.3791 2.69867 0 -37.3387 0 -1.86438 18.3271 5.59541 0 -36.155 0 -0.696348 -9.95046 -1.86571 -1.42109e-014 -5.85373 13.5086 9.93923e-017 -1.98785e-016 -0 -9.00574 -7.10543e-015 2.84217e-014 0.0758142 -5.24585 0.688852 -7.10543e-015 -37.3387 0 7.77234 11.2852 -3.56119 0 -36.155 0 -8.01069 -12.6092 -24.1325 -1.42109e-014 -5.85373 13.5086 1.49089e-016 -1.98785e-016 -9.54166e-015 
